<svg xmlns="http://www.w3.org/2000/svg" viewBox="0 0 64 64">
  <defs>
    <linearGradient id="g" x1="0%" y1="0%" x2="100%" y2="100%">
      <stop offset="0%" stop-color="#7C3AED" />
      <stop offset="100%" stop-color="#4F46E5" />
    </linearGradient>
  </defs>
  <rect x="4" y="4" width="56" height="56" rx="14" fill="#0F172A" />
  <path
    d="M20 37.5c0-5.8 4.7-10.5 10.5-10.5 4.1 0 7.6 2.3 9.4 5.8 3 .3 5.4 2.8 5.4 5.9 0 3.3-2.7 6-6 6H24.5c-2.5 0-4.5-2-4.5-4.5 0-1.2.5-2.3 1.2-3.2-.8-.9-1.2-2.2-1.2-3.5Z"
    fill="url(#g)"
  />
  <path d="M34 26 27 38h6l-3 10 10-14h-6l4-8z" fill="#F8FAFC" />
</svg>
